<?xml version="1.0" encoding="UTF-8" standalone="no"?>
<svg
   xmlns:dc="http://purl.org/dc/elements/1.1/"
   xmlns:cc="http://creativecommons.org/ns#"
   xmlns:rdf="http://www.w3.org/1999/02/22-rdf-syntax-ns#"
   xmlns:svg="http://www.w3.org/2000/svg"
   xmlns="http://www.w3.org/2000/svg"
   xmlns:sodipodi="http://sodipodi.sourceforge.net/DTD/sodipodi-0.dtd"
   xmlns:inkscape="http://www.inkscape.org/namespaces/inkscape"
   width="131.85612mm"
   height="131.93138mm"
   viewBox="0 0 131.85612 131.93138"
   version="1.1"
   id="svg8"
   inkscape:version="1.0.2 (e86c8708, 2021-01-15)"
   sodipodi:docname="ic_instagram.svg">
  <defs
     id="defs2" />
  <sodipodi:namedview
     id="base"
     pagecolor="#ffffff"
     bordercolor="#666666"
     borderopacity="1.0"
     inkscape:pageopacity="0.0"
     inkscape:pageshadow="2"
     inkscape:zoom="0.52461877"
     inkscape:cx="238.5927"
     inkscape:cy="234.61191"
     inkscape:document-units="mm"
     inkscape:current-layer="layer1"
     inkscape:document-rotation="0"
     showgrid="false"
     fit-margin-top="0"
     fit-margin-left="0"
     fit-margin-right="0"
     fit-margin-bottom="0"
     inkscape:window-width="1251"
     inkscape:window-height="943"
     inkscape:window-x="0"
     inkscape:window-y="25"
     inkscape:window-maximized="0" />
  <metadata
     id="metadata5">
    <rdf:RDF>
      <cc:Work
         rdf:about="">
        <dc:format>image/svg+xml</dc:format>
        <dc:type
           rdf:resource="http://purl.org/dc/dcmitype/StillImage" />
        <dc:title></dc:title>
      </cc:Work>
    </rdf:RDF>
  </metadata>
  <g
     inkscape:label="Capa 1"
     inkscape:groupmode="layer"
     id="layer1"
     transform="translate(-48.220748,-53.459457)">
    <ellipse
       style="fill:#a53000;fill-opacity:1;stroke-width:0.583999;stroke-linecap:round;stroke-linejoin:round"
       id="path2461"
       cx="110.70142"
       cy="117.25777"
       rx="62.285309"
       ry="63.798309" />
    <g
       id="Layer_1"
       transform="matrix(0.26458333,0,0,0.26458333,67.582011,64.558466)" />
    <path
       d="M 114.12052,185.39 C 77.475729,185.57521 47.366146,155.06875 48.239271,117.86834 49.033021,82.414169 78.428229,53.045419 115.0201,53.495211 c 36.14209,0.449792 65.98709,30.532916 65.03459,67.733329 -0.89959,35.32188 -30.00375,64.32021 -65.93417,64.16146 z M 56.256146,119.42938 c 0.238125,32.43791 25.902708,57.73208 56.726664,58.18187 32.7025,0.47625 58.94917,-25.32062 59.02854,-58.07604 C 172.03781,87.070836 146.1351,61.856044 115.25823,61.247503 83.481771,60.638961 56.520729,86.197711 56.256146,119.42938 Z"
       id="path2435"
       style="fill:#a53000;fill-opacity:1;stroke-width:0.264583" />
    <path
       d="m 154.94573,120.32896 c 0,5.76792 -0.15875,11.56229 0.0265,17.33021 0.39687,11.08604 -7.59355,20.34646 -18.15042,22.99229 -2.06375,0.52917 -4.25979,0.84667 -6.37646,0.87312 -11.19187,0.0794 -22.38375,0.18521 -33.575623,0 -9.339792,-0.15875 -16.695208,-4.1275 -21.669375,-12.19729 -1.905,-3.09562 -2.8575,-6.53521 -2.8575,-10.18646 -0.02646,-12.5677 -0.132291,-25.13541 0.02646,-37.67666 0.105833,-8.202085 4.206875,-14.261043 11.006666,-18.600209 4.233333,-2.69875 8.916458,-3.915834 13.917083,-3.915834 10.927289,-0.02646 21.854579,-0.132291 32.781869,0.02646 9.63084,0.132291 17.25084,4.153958 22.19855,12.620624 1.7727,3.042709 2.67229,6.402917 2.67229,9.974789 -0.0265,6.24417 0,12.51479 0,18.75896 z m -76.517501,-0.0529 c 0,6.0325 0,12.09146 0,18.12396 0,2.40771 0.449792,4.73604 1.5875,6.87917 3.65125,6.87916 9.630833,10.00125 17.171458,10.10708 10.927293,0.15875 21.881043,0.0794 32.808333,0 1.87854,0 3.78354,-0.3175 5.60917,-0.79375 7.27604,-1.95792 13.46729,-8.255 13.25562,-17.48896 -0.26458,-11.64166 -0.0529,-23.28333 -0.0529,-34.925 0,-2.566455 -0.47625,-5.000621 -1.71979,-7.24958 -3.73062,-6.693958 -9.68375,-9.736666 -17.09208,-9.842499 -10.90083,-0.15875 -21.77521,-0.105834 -32.676041,0 -2.169584,0.02646 -4.392084,0.423333 -6.482292,1.058333 -7.117291,2.196042 -12.726458,8.519583 -12.435416,17.039166 0.185208,5.715 0.02646,11.40354 0.02646,17.09208 z"
       id="path2437"
       style="fill:#ffffff;fill-opacity:1;stroke-width:0.264583" />
    <path
       d="m 113.64427,99.612085 c 10.76854,-0.02646 19.49979,8.572505 19.49979,19.155835 -0.0265,10.53042 -8.73125,19.12937 -19.39396,19.15583 -10.74208,0.0265 -19.446871,-8.54604 -19.446871,-19.18229 0,-10.55687 8.625421,-19.102916 19.341041,-19.129375 z m 0,6.138335 c -7.24958,0.0265 -13.22917,5.92667 -13.20271,13.04396 0.0265,7.11729 5.97959,12.96458 13.28209,12.99104 7.27604,0 13.25562,-5.84729 13.28208,-12.96458 -0.0265,-7.22313 -6.0325,-13.09688 -13.36146,-13.07042 z"
       id="path2439"
       style="fill:#ffffff;fill-opacity:1;stroke-width:0.264583" />
    <path
       d="m 139.49406,97.94521 c 0.0529,2.24896 -1.79917,4.23333 -3.99521,4.31271 -2.24896,0.0794 -4.18041,-1.82563 -4.20687,-4.180418 -0.0265,-2.301875 1.74625,-4.233333 3.94229,-4.312708 2.24896,-0.07937 4.20687,1.852083 4.25979,4.180416 z"
       id="path2441"
       style="fill:#ffffff;fill-opacity:1;stroke-width:0.264583" />
  </g>
</svg>
