<?xml version="1.0" encoding="UTF-8" standalone="no"?>
<svg
   xmlns:dc="http://purl.org/dc/elements/1.1/"
   xmlns:cc="http://creativecommons.org/ns#"
   xmlns:rdf="http://www.w3.org/1999/02/22-rdf-syntax-ns#"
   xmlns:svg="http://www.w3.org/2000/svg"
   xmlns="http://www.w3.org/2000/svg"
   xmlns:sodipodi="http://sodipodi.sourceforge.net/DTD/sodipodi-0.dtd"
   xmlns:inkscape="http://www.inkscape.org/namespaces/inkscape"
   width="15.875mm"
   height="15.875mm"
   viewBox="0 0 15.874999 15.875"
   version="1.1"
   id="svg8"
   inkscape:version="1.0.2 (e86c8708, 2021-01-15)"
   sodipodi:docname="ic_linkedin.svg">
  <defs
     id="defs2" />
  <sodipodi:namedview
     id="base"
     pagecolor="#ffffff"
     bordercolor="#666666"
     borderopacity="1.0"
     inkscape:pageopacity="0.0"
     inkscape:pageshadow="2"
     inkscape:zoom="0.99427911"
     inkscape:cx="-51.074349"
     inkscape:cy="-95.876758"
     inkscape:document-units="mm"
     inkscape:current-layer="layer1"
     inkscape:document-rotation="0"
     showgrid="false"
     fit-margin-top="0"
     fit-margin-left="0"
     fit-margin-right="0"
     fit-margin-bottom="0"
     inkscape:window-width="1251"
     inkscape:window-height="943"
     inkscape:window-x="0"
     inkscape:window-y="25"
     inkscape:window-maximized="0" />
  <metadata
     id="metadata5">
    <rdf:RDF>
      <cc:Work
         rdf:about="">
        <dc:format>image/svg+xml</dc:format>
        <dc:type
           rdf:resource="http://purl.org/dc/dcmitype/StillImage" />
        <dc:title></dc:title>
      </cc:Work>
    </rdf:RDF>
  </metadata>
  <g
     inkscape:label="Capa 1"
     inkscape:groupmode="layer"
     id="layer1"
     transform="translate(-321.19755,-156.47554)">
    <g
       id="Layer_1"
       transform="matrix(0.26458333,0,0,0.26458333,67.582011,64.558466)" />
    <path
       d="m 333.58984,168.15346 v -3.0988 c 0,-1.66026 -0.88635,-2.43285 -2.06798,-2.43285 -0.95356,0 -1.38086,0.52467 -1.61899,0.89271 v -0.76571 h -1.79652 c 0.0238,0.50721 0,5.40465 0,5.40465 h 1.79652 v -3.01837 c 0,-0.16113 0.0116,-0.32253 0.0593,-0.43789 0.12965,-0.32279 0.42519,-0.65696 0.92128,-0.65696 0.65035,0 0.91017,0.49557 0.91017,1.22185 v 2.89163 h 1.79625 z m -7.37605,-6.14231 c 0.62626,0 1.01652,-0.41539 1.01652,-0.93424 -0.0116,-0.52996 -0.39026,-0.93345 -1.00462,-0.93345 -0.61436,0 -1.01626,0.40323 -1.01626,0.93345 0,0.51885 0.38999,0.93424 0.99298,0.93424 z m 2.92126,10.33939 c -4.38362,0 -7.9375,-3.55388 -7.9375,-7.9375 0,-4.38388 3.55388,-7.9375 7.9375,-7.9375 4.38362,0 7.9375,3.55362 7.9375,7.9375 0,4.38362 -3.55388,7.9375 -7.9375,7.9375 z m -2.023,-4.19708 v -5.40465 h -1.79626 v 5.40465 z"
       style="clip-rule:evenodd;fill:#a53000;fill-opacity:1;fill-rule:evenodd;stroke-width:0.264583"
       id="path2481" />
  </g>
</svg>
